<svg width="40" height="40" viewBox="0 0 40 40" fill="none" xmlns="http://www.w3.org/2000/svg">
  <defs>
    <linearGradient id="primary-grad" x1="4" y1="4" x2="36" y2="36" gradientUnits="userSpaceOnUse">
      <stop offset="0%" stop-color="#2563EB" />
      <stop offset="100%" stop-color="#06B6D4" />
    </linearGradient>
    <linearGradient id="accent-grad" x1="36" y1="4" x2="4" y2="36" gradientUnits="userSpaceOnUse">
      <stop offset="0%" stop-color="#10B981" />
      <stop offset="100%" stop-color="#3B82F6" />
    </linearGradient>
    <filter id="shadow" x="-2" y="-2" width="44" height="44" filterUnits="userSpaceOnUse" color-interpolation-filters="sRGB">
      <feFlood flood-opacity="0" result="BackgroundImageFix"/>
      <feColorMatrix in="SourceAlpha" type="matrix" values="0 0 0 0 0 0 0 0 0 0 0 0 0 0 0 0 0 0 127 0" result="hardAlpha"/>
      <feOffset dy="1.5"/>
      <feGaussianBlur stdDeviation="1.5"/>
      <feComposite in2="hardAlpha" operator="out"/>
      <feColorMatrix type="matrix" values="0 0 0 0 0 0 0 0 0 0 0 0 0 0 0 0 0 0 0.15 0"/>
      <feBlend mode="normal" in2="BackgroundImageFix" result="effect1_dropShadow"/>
      <feBlend mode="normal" in="SourceGraphic" in2="effect1_dropShadow" result="shape"/>
    </filter>
  </defs>

  <!-- Background Base for Contrast -->
  <rect x="2" y="2" width="36" height="36" rx="10" fill="white" />
  
  <!-- Outer Ring with Depth -->
  <rect x="4" y="4" width="32" height="32" rx="9" stroke="url(#primary-grad)" stroke-width="2.5" filter="url(#shadow)" />

  <!-- Inner Logic/Routing Symbol (High Contrast) -->
  <g filter="url(#shadow)">
    <!-- Path Alpha -->
    <path d="M12 14C12 14 16 12 20 12C24 12 28 14 28 14V22C28 22 24 20 20 20C16 20 12 22 12 22V14Z" fill="url(#primary-grad)" fill-opacity="0.9" />
    <!-- Path Beta (Interlocking) -->
    <path d="M12 26C12 26 16 28 20 28C24 28 28 26 28 26V18C28 18 24 20 20 20C16 20 12 18 12 18V26Z" fill="url(#accent-grad)" fill-opacity="0.85" />
    
    <!-- Central Control Node -->
    <circle cx="20" cy="20" r="4.5" fill="white" />
    <circle cx="20" cy="20" r="2.5" fill="#1E40AF" />
  </g>
  
  <!-- Minimalist Corner Detail -->
  <rect x="30" y="6" width="4" height="4" rx="2" fill="#10B981" />
</svg>
