<svg xmlns="http://www.w3.org/2000/svg" viewBox="0 0 32 32" shape-rendering="crispEdges">
<rect x="3" y="17" width="2" height="1" fill="#29C1F5"/>
<rect x="2" y="18" width="4" height="1" fill="#1FA2E8"/>
<rect x="2" y="19" width="4" height="1" fill="#1FA2E8"/>
<rect x="2" y="20" width="4" height="1" fill="#1FA2E8"/>
<rect x="2" y="21" width="4" height="1" fill="#1FA2E8"/>
<rect x="3" y="22" width="2" height="1" fill="#1E9BE0"/>
<rect x="9" y="13" width="2" height="1" fill="#4BA6F0"/>
<rect x="8" y="14" width="4" height="1" fill="#33A0EF"/>
<rect x="8" y="15" width="4" height="1" fill="#33A0EF"/>
<rect x="8" y="16" width="4" height="1" fill="#33A0EF"/>
<rect x="8" y="17" width="4" height="1" fill="#33A0EF"/>
<rect x="8" y="18" width="4" height="1" fill="#33A0EF"/>
<rect x="8" y="19" width="4" height="1" fill="#33A0EF"/>
<rect x="8" y="20" width="4" height="1" fill="#2B8BE9"/>
<rect x="8" y="21" width="4" height="1" fill="#2B8BE9"/>
<rect x="8" y="22" width="4" height="1" fill="#2B8BE9"/>
<rect x="8" y="23" width="4" height="1" fill="#2B8BE9"/>
<rect x="8" y="24" width="4" height="1" fill="#2B8BE9"/>
<rect x="9" y="25" width="2" height="1" fill="#2B7DE4"/>
<rect x="15" y="8" width="2" height="1" fill="#8B5CF6"/>
<rect x="14" y="9" width="4" height="1" fill="#7B5CF6"/>
<rect x="14" y="10" width="4" height="1" fill="#7B5CF6"/>
<rect x="14" y="11" width="4" height="1" fill="#7B5CF6"/>
<rect x="14" y="12" width="4" height="1" fill="#7B5CF6"/>
<rect x="14" y="13" width="4" height="1" fill="#5B6BF0"/>
<rect x="14" y="14" width="4" height="1" fill="#5B6BF0"/>
<rect x="14" y="15" width="4" height="1" fill="#5B6BF0"/>
<rect x="14" y="16" width="4" height="1" fill="#5B6BF0"/>
<rect x="14" y="17" width="4" height="1" fill="#5B6BF0"/>
<rect x="14" y="18" width="4" height="1" fill="#5B6BF0"/>
<rect x="14" y="19" width="4" height="1" fill="#3D83E9"/>
<rect x="14" y="20" width="4" height="1" fill="#3D83E9"/>
<rect x="14" y="21" width="4" height="1" fill="#3D83E9"/>
<rect x="14" y="22" width="4" height="1" fill="#3D83E9"/>
<rect x="14" y="23" width="4" height="1" fill="#3D83E9"/>
<rect x="15" y="24" width="2" height="1" fill="#3D7FE4"/>
<rect x="21" y="5" width="2" height="1" fill="#C03BF2"/>
<rect x="20" y="6" width="4" height="1" fill="#A64BF2"/>
<rect x="20" y="7" width="4" height="1" fill="#A64BF2"/>
<rect x="20" y="8" width="4" height="1" fill="#A64BF2"/>
<rect x="20" y="9" width="4" height="1" fill="#A64BF2"/>
<rect x="20" y="10" width="4" height="1" fill="#A64BF2"/>
<rect x="20" y="11" width="4" height="1" fill="#8B4BF0"/>
<rect x="20" y="12" width="4" height="1" fill="#8B4BF0"/>
<rect x="20" y="13" width="4" height="1" fill="#8B4BF0"/>
<rect x="20" y="14" width="4" height="1" fill="#8B4BF0"/>
<rect x="20" y="15" width="4" height="1" fill="#8B4BF0"/>
<rect x="20" y="16" width="4" height="1" fill="#8B4BF0"/>
<rect x="21" y="17" width="2" height="1" fill="#7B5CF0"/>
<rect x="27" y="9" width="2" height="1" fill="#D134E6"/>
<rect x="26" y="10" width="4" height="1" fill="#C93BF2"/>
<rect x="26" y="11" width="4" height="1" fill="#C93BF2"/>
<rect x="26" y="12" width="4" height="1" fill="#C93BF2"/>
<rect x="26" y="13" width="4" height="1" fill="#C93BF2"/>
<rect x="26" y="14" width="4" height="1" fill="#B83BF0"/>
<rect x="27" y="15" width="2" height="1" fill="#B04BF0"/>
</svg>
